<svg xmlns="http://www.w3.org/2000/svg" version="1.1" xmlns:xlink="http://www.w3.org/1999/xlink" xmlns:svgjs="http://svgjs.dev/svgjs" viewBox="0 0 800 800"><rect width="100%" height="100%" fill="hsl(166, 100%, 70%)"></rect><g fill="#0a192f"><rect width="1466" height="3" x="-260" y="351.5" rx="1.5" transform="rotate(135, 473, 353)" opacity="0.23"></rect><rect width="721" height="3" x="-285.5" y="257.5" rx="1.5" transform="rotate(135, 75, 259)" opacity="0.58"></rect><rect width="1178" height="3" x="-164" y="94.5" rx="1.5" transform="rotate(135, 425, 96)" opacity="0.30"></rect><rect width="512" height="3" x="-191" y="512.5" rx="1.5" transform="rotate(135, 65, 514)" opacity="0.51"></rect><rect width="1226" height="3" x="-398" y="670.5" rx="1.5" transform="rotate(135, 215, 672)" opacity="0.97"></rect><rect width="211" height="3" x="596.5" y="558.5" rx="1.5" transform="rotate(135, 702, 560)" opacity="0.11"></rect><rect width="727" height="3" x="141.5" y="666.5" rx="1.5" transform="rotate(135, 505, 668)" opacity="0.36"></rect><rect width="163" height="3" x="181.5" y="267.5" rx="1.5" transform="rotate(135, 263, 269)" opacity="0.77"></rect><rect width="245" height="3" x="121.5" y="438.5" rx="1.5" transform="rotate(135, 244, 440)" opacity="0.66"></rect><rect width="1061" height="3" x="-386.5" y="83.5" rx="1.5" transform="rotate(135, 144, 85)" opacity="0.82"></rect><rect width="821" height="3" x="272.5" y="177.5" rx="1.5" transform="rotate(135, 683, 179)" opacity="0.63"></rect></g></svg>